<?xml version="1.0" encoding="utf-8"?>
<!-- Generator: Adobe Illustrator 19.2.1, SVG Export Plug-In . SVG Version: 6.00 Build 0)  -->
<svg version="1.1" id="Layer_1" xmlns="http://www.w3.org/2000/svg" xmlns:xlink="http://www.w3.org/1999/xlink" x="0px" y="0px"
	 viewBox="0 0 619.8 290.9" style="enable-background:new 0 0 619.8 290.9;" xml:space="preserve">
<style type="text/css">
	.st0{fill:#D62B2A;}
</style>
<g>
	<path class="st0" d="M392.9,237.1c-4.4,0-6.3,3.6-6.3,7.7c0,4.2,2,7.7,6.3,7.7c4.4,0,6.5-3.7,6.5-7.7
		C399.4,240.9,397.4,237.1,392.9,237.1z"/>
	<path class="st0" d="M491.2,236.8c-3.3,0-5.2,2.2-5.8,5.8h11.1C496.3,239.4,494.9,236.8,491.2,236.8z"/>
	<path class="st0" d="M461.9,237.1c-4.4,0-6.3,3.6-6.3,7.7c0,4.2,2,7.7,6.3,7.7c4.4,0,6.5-3.7,6.5-7.7
		C468.4,240.9,466.4,237.1,461.9,237.1z"/>
	<path class="st0" d="M302,237.3c-4.2,0-6.1,3.5-6.1,7.6s1.9,7.5,6.1,7.5c4.3,0,6.2-3.6,6.2-7.5C308.2,241.1,306.3,237.3,302,237.3z
		"/>
	<path class="st0" d="M608,78.5c0,0.4,0,0.8-0.1,1.2c-2.5,27.4-14.5,55.2-50,79.4c-6.3,4.3-49.3,30.7-25,63.2
		c0.5,0.6-0.2,1.8-0.8,1.3c-35.1-29.5,1.1-54.1-6.2-71.8C513,120,437.9,134,426,55.3L1,1l80.9,289.9h537.8V80L608,78.5z
		 M145.2,258.4c-3.5,0-5.7-0.8-7-1.4c-1.4-0.5-1.6-1.2-1.6-2.5c0-1.1,0.3-1,1.4-0.4c1.5,0.7,4.1,1.6,6.9,1.6c4.1,0,6.2-1.9,6.2-4.8
		c0-6.9-13.7-3.1-13.7-12.6c0-4.7,3.3-6.7,8.3-6.7c3.7,0,7.5,0.7,7.5,3c0,1-0.1,1.1-1.3,0.7c-1.4-0.4-3-1-5.9-1
		c-3.3,0-5.5,1.1-5.5,3.9c0,6.3,13.7,2.6,13.7,12.4C154.2,255.1,151.5,258.4,145.2,258.4z M176.7,256.5c-1.3,0.8-3.5,1.8-6.7,1.8
		c-8.2,0-11.7-5.5-11.7-13.2c0-8.1,3.8-13.5,11.7-13.5c4.1,0,6.3,1.6,7.2,2.8c0.4,0.6,0.5,1.1,0.5,1.5c0,0.8-0.2,1.2-1.1,0.7
		c-1.2-0.7-3.1-2.1-6.3-2.1c-6.1,0-8.6,4.4-8.6,10.4c0,5.7,2.2,10.3,8.9,10.3c3.1,0,5.3-1.3,6.4-1.8c0.8-0.3,1.2-0.6,1.2,0.4
		C178.2,254.5,178.1,255.8,176.7,256.5z M201.2,258c-1.8,0-2.8-0.9-3.1-2.7c-1.3,1.2-3.8,2.8-8.8,2.8c-5.1,0-7.6-2.4-7.6-7.3
		c0-5,3-6.7,8.9-6.7c2.1,0,4.9,0.1,7.4,0.5v-1.9c0-6.1-2.1-7.8-6.9-7.8h-5.2c-1.8,0-2.7-1-2.7-2.3c0-0.6,0.2-0.6,1.1-0.6h6.8
		c7.3,0,10.2,3,10.2,10.1v11.5c0.1,1.7,0.4,2.1,1.5,2.1c0.9,0,1,0,1,0.5C203.7,257.2,203.1,258,201.2,258z M220.7,234.7
		c-0.9-0.3-1.4-0.5-2.4-0.5c-3.8,0-5.7,4.4-5.7,11.5v10.6c0,1.2-0.2,1.3-1.3,1.3h-0.7c-1.1,0-1.3-0.2-1.3-1.3v-21.6h-0.7
		c-1.4,0-1.9-1.2-1.9-2.2c0-0.6,0.3-0.6,1.1-0.6h2.3c1.8,0,2.5,0.8,2.5,2.6v2.1c1.1-3.9,3.1-5.3,5.7-5.3c2.6,0,3.3,1.1,3.3,2.5
		C221.4,234.7,221.3,234.9,220.7,234.7z M230.6,258.2c-2.1,0-3.2-1.4-3.2-3.8v-34.3h-0.6c-1.4,0-1.9-1.2-1.9-2.2
		c0-0.6,0.2-0.6,1-0.6h2.3c1.6,0.1,2.3,0.9,2.3,2.6v33.4c0,2,0.3,2.5,1.5,2.5c0.9,0,1,0,1,0.5C233.1,257.4,232.5,258.2,230.6,258.2z
		 M249.6,255.3c3.5,0,6.1-1.1,8-2.3c0.7-0.3,1-0.3,1,0.4c0,0.6-0.1,2.1-1.8,3c-1.5,1-3.9,1.9-7.4,1.9c-7.2,0-12.4-3-12.4-12.7
		c0-9.1,3.9-13.9,11.1-13.9c7.4,0,10.7,5.1,10.7,12.9c0,1-0.3,1.9-1.7,1.9h-16.7C240.5,253.5,244.1,255.3,249.6,255.3z M275,256.1
		c-0.8,1.2-2.4,1.9-5.2,1.9c-4.2,0-5.6-2.7-5.6-7.6v-21.1c0-3.4,1.1-4.8,2.5-4.8c0.7,0,0.7,0.2,0.7,1.2v6.3h6.1
		c0.8,0,1.1,0.1,1.1,0.6c0,1.2-1,2.3-3.2,2.3h-4v14.7c0,4.5,1.5,5.4,3.5,5.4c1.6,0,2.4-0.3,3.6-1.1c0.6-0.3,0.8,0,0.8,0.7
		C275.2,255.3,275.2,255.8,275,256.1z M312.1,257.9c-2.2,0-3.5-0.9-4.1-2.9c-1.7,1.9-4.1,3.1-7.5,3.1c-7.3,0-11.1-5.3-11.1-13.1
		c0-7.9,4-13.3,11.1-13.3c3.2,0,5.6,1.2,7.3,2.9v-12.2c-1.9-0.3-2.8-2.2-2.8-4c0-1.1,0.4-1.1,1.8-1.1h2.1c3.4,0,4.9,1.5,4.9,4.9
		v29.2c0.1,2.1,0.4,2.4,1.5,2.4c0.8,0,1,0,1,0.7C316.2,256.5,314.9,257.9,312.1,257.9z M332.7,252.6c3.4,0,5.7-0.7,8-1.7
		c1.2-0.6,1.4-0.3,1.4,0.8c0,0.7,0,3.8-3,5.2c-1.8,0.9-3.8,1.3-7,1.3c-7.7,0-13.2-3.8-13.2-12.7c0-9.1,4.3-13.9,11.9-13.9
		c8,0,11.5,5.5,11.5,12.2c0,1.9-0.3,3.7-3.2,3.7h-13.9C325.8,251.4,328.2,252.6,332.7,252.6z M355.4,258.4c-3.6,0-5.3-0.4-7-0.9
		c-2.4-0.7-2.8-2.3-2.8-4.5c0-1.8,0.4-1.6,2.2-1c1.5,0.6,4.2,1.5,7.1,1.5c3,0,5.2-0.8,5.2-2.8c0-4.8-13.9-1.3-13.9-11.6
		c0-5.4,3.9-7.3,9.4-7.3c4.4,0,8.9,0.4,8.9,4.8c0,1.4-0.2,1.6-2,1.2c-1.9-0.4-3.5-0.8-6.2-0.8c-2.8,0-4.4,0.7-4.4,2.3
		c0,4.3,13.9,1.1,13.9,11.3C365.7,255.2,362.7,258.4,355.4,258.4z M373.1,218.6c2.1,0,3.5,1.3,3.5,3.4c0,2.1-1.4,3.4-3.5,3.4
		s-3.5-1.4-3.5-3.4C369.6,219.9,371,218.6,373.1,218.6z M374.3,258.2c-2.8,0-4.4-1.7-4.4-5.3v-18.8c0-1.6,0-2.1,1.1-2.1
		c3.5,0,4.9,1.5,4.9,4.9v14c0,2.8,0.3,3.2,1.6,3.2c0.8,0,0.9,0,0.9,0.7C378.3,256.8,377,258.2,374.3,258.2z M405.2,257.5
		c0,12.9-6.9,14.9-13.1,14.9c-5,0-7-0.9-8.7-2.1c-1.6-1.1-1.9-2.4-1.9-3.7c0-1.4,0.6-1.8,1.8-1.3c1.6,0.7,3.5,1.8,7.3,1.8
		c4,0,8.6-0.4,8.9-9.6V255c-1.7,1.9-4,3-7.4,3c-7.3,0-11.1-5.3-11.1-13.1c0-7.9,4-13.3,11.1-13.3c3.4,0,5.9,1.3,7.5,3.3
		c0.6-2.1,1.9-2.9,4.6-2.9c1.2,0,1.2,0.5,1.2,2.2v23.3H405.2z M431.7,257.9c-2.8,0-4.4-1.7-4.4-5.3V243c0-3.3-1.1-5.9-4.5-5.9
		c-3.3,0-4.8,2.3-4.9,6.1v12.1c0,2-0.3,2.4-2.3,2.4h-1.4c-1.9,0-2.3-0.4-2.3-2.4v-18.2c-1.9-0.3-2.7-2.2-2.7-4
		c0-1.1,0.4-1.1,1.8-1.1h2.1c2.6,0,4,0.9,4.5,2.8c1.4-1.8,3.7-3.2,7.1-3.2c6,0,8.5,4,8.5,10.8v8.3c0,2.8,0.4,3.2,1.6,3.2
		c0.8,0,0.9,0,0.9,0.7C435.8,256.5,434.5,257.9,431.7,257.9z M474.4,257.5c0,12.9-6.9,14.9-13.1,14.9c-5,0-7-0.9-8.7-2.1
		c-1.6-1.1-1.9-2.4-1.9-3.7c0-1.4,0.6-1.8,1.8-1.3c1.6,0.7,3.5,1.8,7.3,1.8c4,0,8.6-0.4,8.9-9.6V255c-1.7,1.9-4,3-7.4,3
		c-7.3,0-11.1-5.3-11.1-13.1c0-7.9,4-13.3,11.1-13.3c3.4,0,5.9,1.3,7.5,3.3c0.6-2.1,1.9-2.9,4.6-2.9c1.2,0,1.2,0.5,1.2,2.2v23.3
		H474.4z M492.9,252.6c3.4,0,5.7-0.7,8-1.7c1.2-0.6,1.4-0.3,1.4,0.8c0,0.7,0,3.8-3,5.2c-1.8,0.9-3.8,1.3-7,1.3
		c-7.7,0-13.3-3.8-13.3-12.7c0-9.1,4.3-13.9,11.9-13.9c8,0,11.5,5.5,11.5,12.2c0,1.9-0.3,3.7-3.2,3.7h-13.9
		C486,251.4,488.4,252.6,492.9,252.6z M527.7,257.9c-2.8,0-4.4-1.7-4.4-5.3V243c0-3.3-1.1-5.9-4.5-5.9c-3.3,0-4.8,2.3-4.9,6.1v12.1
		c0,2-0.3,2.4-2.3,2.4h-1.4c-1.9,0-2.3-0.4-2.3-2.4v-18.2c-1.9-0.3-2.7-2.2-2.7-4c0-1.1,0.4-1.1,1.8-1.1h2.1c2.6,0,4,0.9,4.5,2.8
		c1.4-1.8,3.7-3.2,7.1-3.2c6,0,8.5,4,8.5,10.8v8.3c0,2.8,0.4,3.2,1.6,3.2c0.8,0,0.9,0,0.9,0.7C531.8,256.5,530.4,257.9,527.7,257.9z
		 M539.8,258.2c-2.8,0-4.4-1.7-4.4-5.3v-18.8c0-1.6,0-2.1,1.1-2.1c3.5,0,4.9,1.5,4.9,4.9v14c0,2.8,0.3,3.2,1.6,3.2
		c0.8,0,0.9,0,0.9,0.7C543.8,256.8,542.5,258.2,539.8,258.2z M560.1,252.6c3.4,0,5.7-0.7,8-1.7c1.2-0.6,1.4-0.3,1.4,0.8
		c0,0.7,0,3.8-3,5.2c-1.8,0.9-3.8,1.3-7,1.3c-7.7,0-13.3-3.8-13.3-12.7c0-9.1,4.3-13.9,11.9-13.9c8,0,11.5,5.5,11.5,12.2
		c0,1.9-0.3,3.7-3.2,3.7h-13.9C553.3,251.4,555.6,252.6,560.1,252.6z"/>
	<path class="st0" d="M184.9,250.8c0,3.4,1.9,4.5,5.2,4.5c4.4,0,6.5-1.4,7.9-2.7v-5.5c-2.2-0.4-4.9-0.4-6.8-0.4
		C187.4,246.7,184.9,247.2,184.9,250.8z"/>
	<path class="st0" d="M331,236.8c-3.3,0-5.2,2.2-5.8,5.8h11.1C336,239.4,334.6,236.8,331,236.8z"/>
	<path class="st0" d="M558.5,236.8c-3.3,0-5.2,2.2-5.8,5.8h11.1C563.5,239.4,562.1,236.8,558.5,236.8z"/>
	<path class="st0" d="M248.1,234.5c-4.9,0-7.3,3.4-7.8,9.3h15.1C255.3,238,253.1,234.5,248.1,234.5z"/>
</g>
<g>
	<path class="st0" d="M306.5,398.7v9.8h-1.1v-1l0,0c-0.2,0.5-0.9,1.3-2.4,1.3c-2.1,0-3.2-1.6-3.2-3.9c0-1.5,0.5-3.8,3.2-3.8
		c1,0,1.8,0.2,2.3,1.2v-3.6H306.5z M303.2,407.9c1.1,0,2.1-0.8,2.1-3c0-2.1-1-2.9-2.2-2.9s-2.1,0.9-2.1,3
		C301,407.6,302.5,407.9,303.2,407.9z"/>
	<path class="st0" d="M315,406.4c-0.2,1-0.9,2.3-3.1,2.3c-3.5,0-3.6-3.2-3.6-3.8c0-1,0.2-3.9,3.5-3.9c2.8,0,3.2,2.2,3.3,3.8
		c0,0.1,0,0.2,0,0.4h-5.5c0,1.2,0.6,2.7,2.3,2.7c1.2,0,1.8-0.7,2-1.5H315z M313.7,404.4c0-1-0.4-2.4-2-2.4c-1.8,0-2.2,1.5-2.2,2.4
		H313.7z"/>
	<path class="st0" d="M323.2,397.7v10.7H322v-1l0,0c-0.2,0.5-0.9,1.3-2.4,1.3c-2.1,0-3.2-1.6-3.2-3.8c0-1.5,0.5-3.8,3.2-3.8
		c1,0,1.8,0.2,2.3,1.2v-4.6L323.2,397.7L323.2,397.7z M319.9,407.9c1.1,0,2.1-0.8,2.1-3c0-2.1-1-2.9-2.2-2.9s-2.1,0.9-2.1,3
		C317.7,407.6,319.2,407.9,319.9,407.9z"/>
	<path class="st0" d="M325.3,398.7h1.2v1.3h-1.2V398.7z M326.5,401.4v7.1h-1.2v-7.1H326.5z"/>
	<path class="st0" d="M334.8,406c-0.1,0.8-0.6,2.8-3.1,2.8c-0.7,0-3.5-0.1-3.5-3.9c0-1.7,0.6-3.8,3.4-3.8c2,0,3,1.2,3.1,2.5h-1.2
		c-0.3-1.6-1.5-1.6-1.9-1.6c-1.5,0-2.1,1.3-2.1,2.9s0.6,3,2.2,3c1.4,0,1.8-1.2,1.9-1.9H334.8z"/>
	<path class="st0" d="M336.2,403.5c0-1,0.5-2.4,3-2.4c1.1,0,2.9,0.3,2.8,2.4l-0.1,3.3c0,0.5,0,0.9,0.7,0.8v0.9
		c-0.2,0-0.3,0.1-0.6,0.1c-0.7,0-1.1-0.1-1.3-1c-0.5,0.9-1.5,1.3-2.4,1.3c-1.5,0-2.5-0.6-2.5-2.1c0-1.2,0.6-2,3.5-2.3
		c1.1-0.1,1.4-0.1,1.4-1c0-0.3,0-1.4-1.6-1.4c-0.4,0-1.9,0-1.8,1.5L336.2,403.5L336.2,403.5z M340.8,404.9c-0.4,0.3-0.8,0.2-1.6,0.3
		c-1.1,0.2-2,0.2-2,1.4c0,0.8,0.6,1.3,1.4,1.3c1,0,2.1-0.5,2.2-2.5V404.9z"/>
	<path class="st0" d="M344.8,401.4v-3.1h1.2v3.1h1.5v0.9H346v4.5c0,0.5,0,1,0.7,1c0.3,0,0.5-0.1,0.8-0.1v0.9
		c-0.4,0.2-0.9,0.3-1.3,0.3c-1.5,0-1.5-1-1.5-1.8v-4.8h-1.3v-0.9H344.8z"/>
	<path class="st0" d="M355.3,406.4c-0.2,1-0.9,2.3-3.1,2.3c-3.5,0-3.6-3.2-3.6-3.8c0-1,0.2-3.9,3.5-3.9c2.8,0,3.2,2.2,3.3,3.8
		c0,0.1,0,0.2,0,0.4h-5.5c0,1.2,0.6,2.7,2.3,2.7c1.2,0,1.8-0.7,2-1.5H355.3z M354,404.4c0-1-0.4-2.4-2-2.4c-1.8,0-2.2,1.5-2.2,2.4
		H354z"/>
	<path class="st0" d="M363.5,397.7v10.7h-1.1v-1l0,0c-0.2,0.5-0.9,1.3-2.4,1.3c-2.1,0-3.2-1.6-3.2-3.8c0-1.5,0.5-3.8,3.2-3.8
		c1,0,1.8,0.2,2.3,1.2v-4.6L363.5,397.7L363.5,397.7z M360.2,407.9c1.1,0,2.1-0.8,2.1-3c0-2.1-1-2.9-2.2-2.9s-2.1,0.9-2.1,3
		C358,407.6,359.5,407.9,360.2,407.9z"/>
	<path class="st0" d="M369.5,401.4v-3.1h1.2v3.1h1.5v0.9h-1.5v4.5c0,0.5,0,1,0.7,1c0.3,0,0.5-0.1,0.8-0.1v0.9
		c-0.4,0.2-0.9,0.3-1.3,0.3c-1.5,0-1.5-1-1.5-1.8v-4.8h-1.3v-0.9H369.5z"/>
	<path class="st0" d="M376.7,401.1c2.6,0,3.5,1.9,3.5,3.8s-0.9,3.8-3.5,3.8s-3.5-1.9-3.5-3.8C373.2,403.1,374.1,401.1,376.7,401.1z
		 M376.7,407.9c0.5,0,2.2-0.1,2.2-3s-1.7-3-2.2-3s-2.2,0.1-2.2,3S376.2,407.9,376.7,407.9z"/>
	<path class="st0" d="M385.1,403.5c0-1,0.5-2.4,3-2.4c1.1,0,2.9,0.3,2.8,2.4l-0.1,3.3c0,0.5,0,0.9,0.7,0.8v0.9
		c-0.2,0-0.3,0.1-0.6,0.1c-0.7,0-1.1-0.1-1.3-1c-0.5,0.9-1.5,1.3-2.4,1.3c-1.5,0-2.5-0.6-2.5-2.1c0-1.2,0.6-2,3.5-2.3
		c1.1-0.1,1.4-0.1,1.4-1c0-0.3,0-1.4-1.6-1.4c-0.4,0-1.9,0-1.8,1.5L385.1,403.5L385.1,403.5z M389.8,404.9c-0.4,0.3-0.8,0.2-1.6,0.3
		c-1.1,0.2-2,0.2-2,1.4c0,0.8,0.6,1.3,1.4,1.3c1,0,2.1-0.5,2.2-2.5V404.9z"/>
	<path class="st0" d="M399.4,406c-0.1,0.8-0.6,2.8-3.1,2.8c-0.7,0-3.5-0.1-3.5-3.9c0-1.7,0.6-3.8,3.4-3.8c2,0,3,1.2,3.1,2.5h-1.2
		c-0.3-1.6-1.5-1.6-1.9-1.6c-1.5,0-2.1,1.3-2.1,2.9s0.6,3,2.2,3c1.4,0,1.8-1.2,1.9-1.9H399.4z"/>
	<path class="st0" d="M401.5,401.4v-3.1h1.2v3.1h1.5v0.9h-1.5v4.5c0,0.5,0,1,0.7,1c0.3,0,0.5-0.1,0.8-0.1v0.9
		c-0.4,0.2-0.9,0.3-1.3,0.3c-1.5,0-1.5-1-1.5-1.8v-4.8h-1.3v-0.9H401.5z"/>
	<path class="st0" d="M410.5,408.5v-1l0,0c-0.7,1.2-2.2,1.3-2.4,1.3c-2.1,0-2.3-1.6-2.3-2.7v-4.7h1.2v4.4c0,1.8,0.6,2.2,1.5,2.2
		c2.1,0,2-2.1,2-2.6v-3.9h1.2v7.1L410.5,408.5L410.5,408.5z"/>
	<path class="st0" d="M413.6,403.5c0-1,0.5-2.4,3-2.4c1.1,0,2.9,0.3,2.8,2.4l-0.1,3.3c0,0.5,0,0.9,0.7,0.8v0.9
		c-0.2,0-0.3,0.1-0.6,0.1c-0.7,0-1.1-0.1-1.3-1c-0.5,0.9-1.5,1.3-2.4,1.3c-1.5,0-2.5-0.6-2.5-2.1c0-1.2,0.6-2,3.5-2.3
		c1.1-0.1,1.4-0.1,1.4-1c0-0.3,0-1.4-1.6-1.4c-0.4,0-1.9,0-1.8,1.5L413.6,403.5L413.6,403.5z M418.2,404.9c-0.4,0.3-0.8,0.2-1.6,0.3
		c-1.1,0.2-2,0.2-2,1.4c0,0.8,0.6,1.3,1.4,1.3c1,0,2.1-0.5,2.2-2.5V404.9z"/>
	<path class="st0" d="M423,397.7v10.7h-1.2v-10.7H423z"/>
	<path class="st0" d="M425.1,398.7h1.2v1.3h-1.2V398.7z M426.3,401.4v7.1h-1.2v-7.1H426.3z"/>
	<path class="st0" d="M433.4,401.4v0.9l-4.1,5.4h4.3v0.9h-5.8v-0.9l4.3-5.4h-4v-0.9H433.4z"/>
	<path class="st0" d="M435.1,398.7h1.2v1.3h-1.2V398.7z M436.3,401.4v7.1h-1.2v-7.1H436.3z"/>
	<path class="st0" d="M439.7,401.4v1c0.5-0.7,1.3-1.3,2.4-1.3c1.9,0,2.3,1.2,2.3,2.7v4.7h-1.2v-4.4c0-0.8,0-2.2-1.5-2.2
		c-0.7,0-2,0.3-2,2.6v3.9h-1.2v-7.1L439.7,401.4L439.7,401.4z"/>
	<path class="st0" d="M447.9,409.7c0.1,0.4,0.1,0.5,0.1,0.5c0.2,0.8,1.1,1,1.9,1c1.9,0,2-1.8,2-2.2v-1.6c-0.7,1.1-1.2,1.4-2.3,1.4
		c-1.7,0-3.2-1.1-3.2-3.9c0-0.7,0-3.8,3.1-3.8c1.2,0,2,0.4,2.5,1.3l0,0v-1h1.1v7.7c0,2.7-2.5,2.9-3.2,2.9s-2.5,0-3-1.7
		c0-0.1-0.1-0.2-0.1-0.6L447.9,409.7L447.9,409.7z M451.9,404.9c0-1.8-0.8-2.9-2.2-2.9c-2.1,0-2.1,2.3-2.1,2.9
		c0,2.9,1.6,3.1,2.2,3.1C450.2,407.9,451.9,407.6,451.9,404.9z"/>
	<path class="st0" d="M458.6,411c0.4,0.1,0.5,0.1,0.6,0.1c0.7,0,0.9-0.6,1.1-1.2l0.5-1.4l-3.1-7.1h1.5l2.3,5.8l1.9-5.8h1.2l-3.1,8.8
		c-0.2,0.7-0.5,1.8-1.9,1.8c-0.4,0-0.7,0-1-0.1V411z"/>
	<path class="st0" d="M468.8,401.1c2.6,0,3.5,1.9,3.5,3.8s-0.9,3.8-3.5,3.8s-3.5-1.9-3.5-3.8C465.3,403.1,466.2,401.1,468.8,401.1z
		 M468.8,407.9c0.5,0,2.2-0.1,2.2-3s-1.7-3-2.2-3s-2.2,0.1-2.2,3S468.2,407.9,468.8,407.9z"/>
	<path class="st0" d="M478.8,408.5v-1l0,0c-0.7,1.2-2.2,1.3-2.4,1.3c-2.1,0-2.3-1.6-2.3-2.7v-4.7h1.2v4.4c0,1.8,0.6,2.2,1.5,2.2
		c2.1,0,2-2.1,2-2.6v-3.9h1.2v7.1L478.8,408.5L478.8,408.5z"/>
	<path class="st0" d="M486.2,402c-1.7,0.1-2.6,0.7-2.7,2.5c0,0.1,0,0.3,0,0.4v0.4v3.3h-1.2v-7.1h1.2v1.4l0,0
		c0.3-1.1,1.4-1.6,2.4-1.6h0.4L486.2,402L486.2,402z"/>
	<path class="st0" d="M494.2,402.3h-1.6v6.2h-1.2v-6.2h-1.3v-0.9h1.3v-1c0-1.2,0.6-1.8,1.9-1.8c0.3,0,0.7,0,0.9,0.1v0.9
		c-0.6,0-0.7,0-0.9,0c-0.7,0-0.7,0.7-0.7,1v0.9h1.6L494.2,402.3L494.2,402.3z"/>
	<path class="st0" d="M500.3,408.5v-1l0,0c-0.7,1.2-2.2,1.3-2.4,1.3c-2.1,0-2.3-1.6-2.3-2.7v-4.7h1.2v4.4c0,1.8,0.6,2.2,1.5,2.2
		c2.1,0,2-2.1,2-2.6v-3.9h1.2v7.1L500.3,408.5L500.3,408.5z"/>
	<path class="st0" d="M504.9,397.7v10.7h-1.2v-10.7H504.9z"/>
	<path class="st0" d="M508.3,397.7v10.7h-1.2v-10.7H508.3z"/>
	<path class="st0" d="M515,401.4v1l0,0c0.7-1.1,1.7-1.3,2.4-1.3c1.8,0,3.2,1.2,3.2,3.8c0,2.8-1.6,3.8-3.2,3.8
		c-0.3,0-1.7-0.1-2.3-1.3v4.5h-1.2v-10.6h1.1V401.4z M517.2,407.9c1,0,2.1-0.7,2.1-3c0-1.8-0.8-3-2.2-3c-0.6,0-2.1,0.3-2.1,3
		C515,407.2,516.3,407.9,517.2,407.9z"/>
	<path class="st0" d="M525.4,401.1c2.6,0,3.5,1.9,3.5,3.8s-0.9,3.8-3.5,3.8s-3.5-1.9-3.5-3.8C521.9,403.1,522.9,401.1,525.4,401.1z
		 M525.4,407.9c0.5,0,2.2-0.1,2.2-3s-1.7-3-2.2-3s-2.2,0.1-2.2,3S524.9,407.9,525.4,407.9z"/>
	<path class="st0" d="M531.1,401.4v-3.1h1.2v3.1h1.5v0.9h-1.5v4.5c0,0.5,0,1,0.7,1c0.3,0,0.5-0.1,0.8-0.1v0.9
		c-0.4,0.2-0.9,0.3-1.3,0.3c-1.5,0-1.5-1-1.5-1.8v-4.8h-1.3v-0.9H531.1z"/>
	<path class="st0" d="M541.6,406.4c-0.2,1-0.9,2.3-3.1,2.3c-3.5,0-3.6-3.2-3.6-3.8c0-1,0.2-3.9,3.5-3.9c2.8,0,3.2,2.2,3.3,3.8
		c0,0.1,0,0.2,0,0.4h-5.5c0,1.2,0.6,2.7,2.3,2.7c1.2,0,1.8-0.7,2-1.5H541.6z M540.4,404.4c0-1-0.4-2.4-2-2.4c-1.8,0-2.2,1.5-2.2,2.4
		H540.4z"/>
	<path class="st0" d="M544.7,401.4v1c0.5-0.7,1.3-1.3,2.4-1.3c1.9,0,2.3,1.2,2.3,2.7v4.7h-1.2v-4.4c0-0.8,0-2.2-1.5-2.2
		c-0.7,0-2,0.3-2,2.6v3.9h-1.2v-7.1L544.7,401.4L544.7,401.4z"/>
	<path class="st0" d="M552,401.4v-3.1h1.2v3.1h1.5v0.9h-1.5v4.5c0,0.5,0,1,0.7,1c0.3,0,0.5-0.1,0.8-0.1v0.9
		c-0.4,0.2-0.9,0.3-1.3,0.3c-1.5,0-1.5-1-1.5-1.8v-4.8h-1.3v-0.9H552z"/>
	<path class="st0" d="M556.2,398.7h1.2v1.3h-1.2V398.7z M557.4,401.4v7.1h-1.2v-7.1H557.4z"/>
	<path class="st0" d="M559.3,403.5c0-1,0.5-2.4,3-2.4c1.1,0,2.9,0.3,2.8,2.4l-0.1,3.3c0,0.5,0,0.9,0.7,0.8v0.9
		c-0.2,0-0.3,0.1-0.6,0.1c-0.7,0-1.1-0.1-1.3-1c-0.5,0.9-1.5,1.3-2.4,1.3c-1.5,0-2.5-0.6-2.5-2.1c0-1.2,0.6-2,3.5-2.3
		c1.1-0.1,1.4-0.1,1.4-1c0-0.3,0-1.4-1.6-1.4c-0.4,0-1.9,0-1.8,1.5L559.3,403.5L559.3,403.5z M563.9,404.9c-0.4,0.3-0.8,0.2-1.6,0.3
		c-1.1,0.2-2,0.2-2,1.4c0,0.8,0.6,1.3,1.4,1.3c1,0,2.1-0.5,2.2-2.5L563.9,404.9z"/>
	<path class="st0" d="M568.7,397.7v10.7h-1.2v-10.7H568.7z"/>
</g>
</svg>
